<?xml version="1.0" encoding="UTF-8"?>
<svg id="Layer_2" data-name="Layer 2" xmlns="http://www.w3.org/2000/svg" viewBox="0 0 412.99 407.98">
  <defs>
    <style>
      .cls-1 {
        fill: #39d3f1;
        stroke: #3b82f4;
        stroke-linecap: round;
        stroke-linejoin: round;
        stroke-width: 12px;
      }
    </style>
  </defs>
  <g id="Layer_8" data-name="Layer 8">
    <g>
      <path class="cls-1" d="M254.24,9.28c20.69-2.13,38.91,3.45,54.68,16.74,43.67,49.82,118.57,92.65,92.82,170.76-15.13,45.89-69.27,67.9-111.31,42.68l-.8-1.05c8.66-55.8-49.29-83.98-79.68-120.4-33.36-39.97-7.77-103.36,44.31-108.72ZM317.53,197.91c36.71,8.69,44.13-30.33,31.09-56.6-5.65-11.37-16.22-19.41-24.67-28.33-13.7-14.47-32.84-37.16-48.03-48.97-19.58-15.22-40.42,6.43-27,24,18.21,23.84,61.64,50.7,68.82,80.18,2.63,10.8,1.51,18.98-.22,29.72Z"/>
      <path class="cls-1" d="M80.24,156.29c13.68-.83,29.76,2.61,41.32,10.16-5.97,54.72,48.91,83.34,79.4,119.53,53.05,62.97-33.86,146.93-97.04,93.04-20.58-17.56-70.98-67.21-83.89-89.11-32.17-54.54-7.73-129.49,60.22-133.62ZM93.37,209.08c-19.65-5.81-36.96,8.27-37,28.41-.07,37.45,59.93,76.43,81.59,104.49,15.87,11.36,35.17-4.91,26.69-22.69-.91-1.9-3.69-5.06-5.17-6.83-19.38-23.09-63.67-52.44-66.9-83.1-.71-6.75,0-13.62.8-20.29Z"/>
      <path class="cls-1" d="M206.44,188.99l-58.53-57.97c-43.64-36.45-103.3-22.63-137.46,18.97C32.47,75.8,99.18,16.2,176.44,6c-24.69,24.96-33.95,59.67-21.76,93.25,12.22,33.69,62.08,67.72,85.73,96.27,5.33,6.43,10.02,14.31,12.03,22.47h-44c-.45,1.94.71,1.92,1.68,2.82,22.84,20.82,48.59,56.2,76.64,68.36,41.9,18.16,86.8,3.13,114.66-31.17-3.45,16.56-11.78,33.52-20.57,47.92-31.75,51.95-86.49,88.81-147.42,96.07,25.99-26.12,36.39-62.16,23.02-97.51-12.28-32.47-60.48-66.44-84-94-5.03-5.89-9.27-12.44-12.6-19.43l1.07-2.04h45.5Z"/>
    </g>
  </g>
</svg>